<svg xmlns="http://www.w3.org/2000/svg" width="1200" height="800" viewBox="0 0 1200 800">
  <!-- Fond principal avec dégradé -->
  <defs>
    <linearGradient id="bgGradient" x1="0%" y1="0%" x2="100%" y2="100%">
      <stop offset="0%" style="stop-color:#667eea;stop-opacity:1" />
      <stop offset="100%" style="stop-color:#764ba2;stop-opacity:1" />
    </linearGradient>
    
    <linearGradient id="accentGradient" x1="0%" y1="0%" x2="100%" y2="100%">
      <stop offset="0%" style="stop-color:#8a2be2;stop-opacity:0.3" />
      <stop offset="100%" style="stop-color:#ff6b6b;stop-opacity:0.2" />
    </linearGradient>
    
    <filter id="blurFilter" x="-50%" y="-50%" width="200%" height="200%">
      <feGaussianBlur in="SourceGraphic" stdDeviation="15" />
    </filter>
  </defs>
  
  <!-- Fond principal -->
  <rect width="1200" height="800" fill="url(#bgGradient)" />
  
  <!-- Éléments décoratifs flous -->
  <circle cx="200" cy="150" r="80" fill="url(#accentGradient)" filter="url(#blurFilter)" opacity="0.6" />
  <circle cx="1000" cy="300" r="60" fill="url(#accentGradient)" filter="url(#blurFilter)" opacity="0.4" />
  <circle cx="300" cy="600" r="100" fill="url(#accentGradient)" filter="url(#blurFilter)" opacity="0.3" />
  <circle cx="900" cy="500" r="70" fill="url(#accentGradient)" filter="url(#blurFilter)" opacity="0.5" />
  
  <!-- Lignes décoratives -->
  <path d="M0 400 Q300 200 600 400 T1200 400" stroke="rgba(255,255,255,0.1)" stroke-width="2" fill="none" />
  <path d="M0 200 Q400 500 800 200 T1200 200" stroke="rgba(255,255,255,0.08)" stroke-width="2" fill="none" />
  <path d="M0 600 Q500 300 1000 600 T1200 600" stroke="rgba(255,255,255,0.06)" stroke-width="2" fill="none" />
  
  <!-- Points décoratifs -->
  <circle cx="150" cy="100" r="3" fill="white" opacity="0.3" />
  <circle cx="1050" cy="200" r="2" fill="white" opacity="0.4" />
  <circle cx="400" cy="700" r="4" fill="white" opacity="0.2" />
  <circle cx="800" cy="100" r="2" fill="white" opacity="0.5" />
  <circle cx="200" cy="500" r="3" fill="white" opacity="0.3" />
  <circle cx="1000" cy="600" r="2" fill="white" opacity="0.4" />
</svg>